<svg xmlns="http://www.w3.org/2000/svg" viewBox="0 0 1200.98 300.79"><g id="BG"><path d="M.5.5V299.94H542a5,5,0,0,1,2.37.56H1200.5V.5Z" transform="translate(0.48 0.29)" style="fill:#1d1f21"/><path d="M481.74-.29H-.48V299.94h483a296.19,296.19,0,0,0-.8-300.23Z" transform="translate(0.48 0.29)" style="fill:#1a1a1a"/></g><g id="text"><text transform="translate(658.48 133.15)" style="font-size:81.10291290283203px;fill:#fff;font-family:AmaticSC-Bold, Amatic SC;font-weight:700">A Little About Erik</text><g id="subtext"><text transform="translate(1017.36 220.06)" style="font-size:58px;fill:#fff;font-family:AmaticSC-Bold, Amatic SC;font-weight:700">Info</text><text transform="translate(835.45 219.06)" style="font-size:58px;fill:#fff;font-family:AmaticSC-Bold, Amatic SC;font-weight:700">Contact</text><text transform="translate(649.41 219.51)" style="font-size:58px;fill:#fff;font-family:AmaticSC-Bold, Amatic SC;font-weight:700">Projects</text><path d="M813,200.87c.79,4-2.75,6.59-8,7.11-5.25.72-8.79-1.64-8-6.85s4.34-8,8-7.38A9.09,9.09,0,0,1,813,200.87Z" transform="translate(0.48 0.29)" style="fill:#fff"/><path d="M983,201.13c.78-5.2,4.34-8,8-7.38a9.09,9.09,0,0,1,8,7.12c.79,4-2.75,6.59-8,7.11C985.75,208.7,982.21,206.34,983,201.13Z" transform="translate(0.48 0.29)" style="fill:#fff"/></g></g><g id="name"><text transform="translate(79.2 117.14) rotate(-6.8) scale(1.25 1)" style="font-size:56px;fill:#616bf4;font-family:RockSalt-Regular, Rock Salt">Erik</text><text transform="matrix(0.99, -0.12, 0.12, 0.99, 141.33, 188.21)" style="font-size:56px;fill:#616bf4;font-family:RockSalt-Regular, Rock Salt">Kodn<tspan x="161.77" y="0" style="letter-spacing:-0.01953125em">a</tspan><tspan x="200.92" y="0">r</tspan></text><text transform="matrix(0.99, -0.12, 0.12, 0.99, 86.85, 263.57)" style="font-size:28.80755043029785px;fill:#333;font-family:RockSalt-Regular, Rock Salt">Soft<tspan x="85.86" y="0" style="letter-spacing:-0.030272282768715207em">w</tspan><tspan x="110.45" y="0" style="letter-spacing:-0.019543080645200803em">a</tspan><tspan x="130.59" y="0">re Developmentv</tspan></text></g></svg>